{"title":"In Bruges 2008 BRRip H264 LKRG","uid":5624575,"size":1881470113,"categoryP":"video","categoryS":"movies","magnet":"?xt=urn:btih:d1fe86bc445759a57b1297285859762b49170d7d&amp;dn=In+Bruges+2008+BRRip+H264+LKRG&amp;tr=udp%3A%2F%2Ftracker.openbittorrent.com%3A80&amp;tr=udp%3A%2F%2Fopen.demonii.com%3A1337&amp;tr=udp%3A%2F%2Ftracker.coppersurfer.tk%3A6969&amp;tr=udp%3A%2F%2Fexodus.desync.com%3A6969","seeders":0,"leechers":1,"uploader":"neon","files":-1,"time":1276387297,"description":"In Bruges 2008 BRRip H264 LKRG &lt;a href=&quot;\nhttp://img163.imageshack.us/img163/4087/penhuihc.png&quot; rel=&quot;nofollow&quot; target=&quot;_NEW&quot;&gt;\nhttp://img163.imageshack.us/img163/4087/penhuihc.png&lt;/a&gt;\nhttp://img14.imageshack.us/img14/2445/gn4zg5au.png\nhttp://img405.imageshack.us/img405/6971/vrmkvefs.png\nhttp://img101.imageshack.us/img101/8364/qyzejgrt.png\n\n\n\nGenre: Crime | Drama | Thriller \n\nPlot: Holed up in Bruges, Belgium after a difficult job, two hit men begin to differ on their views of life and death as they become used to local customs. \n\nCast: \nElizabeth Berrington ... Natalie\nRudy Blomme ... Ticket Seller\nOlivier Bonjour ... Film Director\nMark Donovan ... Overweight Man\nAnn Elsley ... Overweight Woman #2\nColin Farrell ... Ray\nJean-Marc Favorin ... Policeman\nRalph Fiennes ... Harry Waters\nBrendan Gleeson ... Ken\nEric Godon ... Yuri\nZeljko Ivanek ... Canadian Guy\nSachi Kimura ... Imamoto\nAnna Madeley ... Denise\nLouis Nummy ... Harry's child #3\nClÃƒÂ©mence PoÃƒÂ©sy ... ChloÃƒÂ« Villette\n\n\n\nFile Name\n\nIn Bruges 2008 BRRip H264 LKRG-Wrath.mp4\n\nFile Size\nFormat : MPEG-4\nFormat profile : Base Media\nCodec ID : isom\nFile size : 1.75 GiB\nDuration : 1h 46mn\nOverall bit rate : 2 348 Kbps\n\nVideo\nID : 1\nFormat : AVC\nFormat/Info : Advanced Video Codec\nFormat profile : &lt;a class=&quot;__cf_email__&quot; href=&quot;/cdn-cgi/l/email-protection&quot; data-cfemail=&quot;276f4e404f676b130916&quot;&gt;[email&amp;#160;protected]&lt;/a&gt;&lt;script cf-hash='f9e31' type=&quot;text/javascript&quot;&gt;\n/* &lt;![CDATA[ */!function(){try{var t=&quot;currentScript&quot;in document?document.currentScript:function(){for(var t=document.getElementsByTagName(&quot;script&quot;),e=t.length;e--;)if(t[e].getAttribute(&quot;cf-hash&quot;))return t[e]}();if(t&amp;&amp;t.previousSibling){var e,r,n,i,c=t.previousSibling,a=c.getAttribute(&quot;data-cfemail&quot;);if(a){for(e=&quot;&quot;,r=parseInt(a.substr(0,2),16),n=2;a.length-n;n+=2)i=parseInt(a.substr(n,2),16)^r,e+=String.fromCharCode(i);e=document.createTextNode(e),c.parentNode.replaceChild(e,c)}}}catch(u){}}();/* ]]&gt; */&lt;/script&gt;\nFormat settings, CABAC : Yes\nFormat settings, ReFrames : 3 frames\nCodec ID : avc1\nCodec ID/Info : Advanced Video Coding\nDuration : 1h 46mn\nBit rate mode : Variable\nBit rate : 2 185 Kbps\nNominal bit rate : 2 903 Kbps\nMaximum bit rate : 18.6 Mbps\nWidth : 1 280 pixels\nHeight : 528 pixels\nDisplay aspect ratio : 2.40:1\nFrame rate mode : Constant\nFrame rate : 24.000 fps\nResolution : 24 bits\nColorimetry : 4:2:0\nScan type : Progressive\nBits/(Pixel*Frame) : 0.135\nStream size : 1.63 GiB (93%)\n\nAudio #1\nID : 2\nFormat : AAC\nFormat/Info : Advanced Audio Codec\nFormat version : Version 4\nFormat profile : LC\nFormat settings, SBR : No\nCodec ID : 40\nCodec ID : 40\nDuration : 1h 46mn\nBit rate mode : Variable\nBit rate : 160 Kbps\nMaximum bit rate : 173 Kbps\nChannel(s) : 2 channels\nChannel positions : L R\nSampling rate : 48.0 KHz\nResolution : 16 bits\nStream size : 122 MiB (7%)\n\n\nEnglish SRT : N/A\n\nLanguage :English","torrent":{"xt":"urn:btih:d1fe86bc445759a57b1297285859762b49170d7d","amp;dn":"In+Bruges+2008+BRRip+H264+LKRG","amp;tr":["udp%3A%2F%2Ftracker.openbittorrent.com%3A80","udp%3A%2F%2Fopen.demonii.com%3A1337","udp%3A%2F%2Ftracker.coppersurfer.tk%3A6969","udp%3A%2F%2Fexodus.desync.com%3A6969"],"infoHash":"d1fe86bc445759a57b1297285859762b49170d7d","infoHashBuffer":{"type":"Buffer","data":[209,254,134,188,68,87,89,165,123,18,151,40,88,89,118,43,73,23,13,125]},"announce":[],"urlList":[]}}